<?xml version='1.0' encoding='ascii'?>
<svg xmlns="http://www.w3.org/2000/svg" height="1920" version="1.1" width="1920">
    <g id="RenderLayer_LineSet" inkscape:groupmode="lineset" inkscape:label="RenderLayer_LineSet" xmlns:inkscape="http://www.inkscape.org/namespaces/inkscape">
        <g id="strokes" inkscape:groupmode="layer" inkscape:label="strokes" xmlns:inkscape="http://www.inkscape.org/namespaces/inkscape">
            <path d=" M 901.255, 131.222 903.559, 129.837 " fill="none" stroke="rgb(0, 0, 0)" stroke-linecap="butt" stroke-linejoin="round" stroke-opacity="1.0" stroke-width="3.0" />
            <path d=" M 903.559, 129.837 905.957, 128.727 " fill="none" stroke="rgb(0, 0, 0)" stroke-linecap="butt" stroke-linejoin="round" stroke-opacity="1.0" stroke-width="3.0" />
            <path d=" M 905.957, 128.727 908.402, 127.910 910.845, 127.405 913.238, 127.231 923.238, 127.219 933.238, 127.207 943.238, 127.195 953.238, 127.183 963.238, 127.171 973.238, 127.159 983.238, 127.147 993.238, 127.135 1003.238, 127.123 1007.762, 127.118 1010.671, 127.311 1013.461, 127.879 1016.107, 128.797 1018.583, 130.040 1020.863, 131.581 1022.923, 133.394 1024.736, 135.455 1026.276, 137.736 1027.519, 140.213 1028.438, 142.860 1029.009, 145.651 1029.205, 148.560 1029.009, 151.469 1028.438, 154.260 1027.519, 156.905 1026.276, 159.381 1024.736, 161.662 1022.923, 163.721 " fill="none" stroke="rgb(0, 0, 0)" stroke-linecap="butt" stroke-linejoin="round" stroke-opacity="1.0" stroke-width="3.0" />
            <path d=" M 1093.069, 1814.969 1093.069, 1804.969 1093.069, 1794.969 1093.069, 1784.969 1093.069, 1774.969 1093.069, 1764.969 1093.069, 1754.969 1093.069, 1744.969 1093.069, 1734.969 1093.069, 1724.969 1093.069, 1714.969 1093.069, 1704.969 1093.069, 1694.969 1093.069, 1684.969 1093.069, 1674.969 1093.069, 1664.969 1093.069, 1654.969 1093.069, 1644.969 1093.069, 1634.969 1093.069, 1624.969 1093.069, 1614.969 1093.069, 1604.969 1093.069, 1594.969 1093.069, 1584.969 1093.069, 1574.969 1093.069, 1564.969 1093.069, 1554.969 1093.069, 1544.969 1093.069, 1534.969 1093.069, 1524.969 1093.069, 1514.969 1093.069, 1504.969 1093.069, 1494.969 1093.069, 1484.969 1093.069, 1474.969 1093.069, 1464.969 1093.069, 1454.969 1093.069, 1444.969 1093.069, 1434.969 1093.069, 1424.969 1093.069, 1414.969 1093.069, 1404.969 1093.069, 1394.969 1093.069, 1384.969 1093.069, 1374.969 1093.069, 1364.969 1093.069, 1354.969 1093.069, 1344.969 1093.069, 1334.969 1093.069, 1324.969 1093.069, 1314.969 1093.069, 1304.969 1093.069, 1294.969 1093.069, 1284.969 1093.069, 1274.969 1093.069, 1264.969 1093.069, 1254.969 1093.069, 1244.969 1093.069, 1234.969 1093.069, 1224.969 1093.069, 1214.969 1093.069, 1204.969 1093.069, 1194.969 1093.069, 1184.969 1093.069, 1174.969 1093.069, 1164.969 1093.069, 1154.969 1093.069, 1144.969 1093.069, 1134.969 1093.069, 1124.969 1093.069, 1114.969 1093.069, 1104.969 1093.069, 1094.969 1093.069, 1084.969 1093.069, 1074.969 1093.069, 1064.969 1093.069, 1054.969 1093.069, 1044.969 1093.069, 1034.969 1093.069, 1024.969 1093.069, 1014.969 1093.069, 1004.969 1093.069, 994.969 1093.069, 984.969 1093.069, 974.969 1093.069, 964.969 1093.069, 954.969 1093.069, 944.969 1093.069, 934.969 1093.069, 924.969 1093.069, 914.969 1093.069, 904.969 1093.069, 894.969 1093.069, 884.969 1093.069, 874.969 1093.069, 864.969 1093.069, 854.969 1093.069, 844.969 1093.069, 834.969 1093.069, 824.969 1093.069, 814.969 1093.069, 804.969 1093.069, 794.969 1093.069, 784.969 1093.069, 774.969 1093.069, 764.969 1093.069, 754.969 1093.069, 744.969 1093.069, 734.969 1093.069, 724.969 1093.069, 714.969 1093.069, 704.969 1093.069, 694.969 1093.069, 684.969 1093.069, 674.969 1093.069, 664.969 1093.069, 654.969 1093.069, 644.969 1093.069, 634.969 1093.069, 624.969 1093.069, 614.969 1093.069, 604.969 1093.069, 594.969 1093.069, 584.969 1093.069, 574.969 1093.069, 564.969 1093.069, 554.969 1093.069, 544.969 1093.069, 534.969 1093.069, 524.969 1093.069, 514.969 1093.069, 504.969 1093.069, 494.969 1093.069, 484.969 1093.069, 474.969 1093.069, 464.969 1093.069, 454.969 1093.069, 444.969 1093.069, 434.969 1093.069, 424.969 1093.069, 414.969 1093.069, 404.969 1093.069, 394.969 1093.069, 384.969 1093.069, 374.969 1093.069, 364.969 1093.069, 354.969 1093.069, 344.969 1093.069, 334.969 1093.069, 324.969 1093.069, 314.969 1093.069, 304.969 1093.069, 294.969 1093.069, 284.969 1093.069, 274.969 1093.069, 264.969 1093.069, 254.969 1093.069, 244.969 1093.069, 234.969 1093.069, 224.969 1093.069, 214.969 1093.069, 204.969 1093.069, 194.969 1093.069, 184.969 1093.069, 174.969 1093.069, 164.969 1093.069, 154.969 1093.069, 144.969 1093.069, 134.969 1093.069, 124.969 1093.069, 105.031 " fill="none" stroke="rgb(0, 0, 0)" stroke-linecap="butt" stroke-linejoin="round" stroke-opacity="1.0" stroke-width="3.0" />
            <path d=" M 891.816, 147.022 892.111, 144.242 892.838, 141.604 893.948, 139.129 895.392, 136.834 897.124, 134.739 899.094, 132.862 901.255, 131.222 " fill="none" stroke="rgb(0, 0, 0)" stroke-linecap="butt" stroke-linejoin="round" stroke-opacity="1.0" stroke-width="3.0" />
            <path d=" M 1013.461, 169.237 1010.671, 169.807 1007.762, 170.003 997.762, 170.003 987.762, 170.003 977.762, 170.003 967.762, 170.003 957.762, 170.003 947.762, 170.003 937.762, 170.003 927.762, 170.003 917.762, 170.003 914.551, 170.003 910.581, 169.792 907.033, 169.177 903.895, 168.187 901.152, 166.849 898.791, 165.192 896.798, 163.244 895.160, 161.033 893.863, 158.588 892.894, 155.936 892.239, 153.106 891.884, 150.125 " fill="none" stroke="rgb(0, 0, 0)" stroke-linecap="butt" stroke-linejoin="round" stroke-opacity="1.0" stroke-width="3.0" />
            <path d=" M 1038.408, 315.538 1038.755, 320.687 " fill="none" stroke="rgb(0, 0, 0)" stroke-linecap="butt" stroke-linejoin="round" stroke-opacity="1.0" stroke-width="3.0" />
            <path d=" M 1022.923, 163.721 1020.863, 165.534 1018.583, 167.075 1016.107, 168.318 " fill="none" stroke="rgb(0, 0, 0)" stroke-linecap="butt" stroke-linejoin="round" stroke-opacity="1.0" stroke-width="3.0" />
            <path d=" M 1037.398, 310.600 1038.408, 315.538 " fill="none" stroke="rgb(0, 0, 0)" stroke-linecap="butt" stroke-linejoin="round" stroke-opacity="1.0" stroke-width="3.0" />
            <path d=" M 990.718, 284.092 995.656, 283.083 1000.804, 282.736 1005.953, 283.083 1010.891, 284.093 1015.574, 285.720 1019.956, 287.919 1023.992, 290.646 1027.637, 293.854 1030.845, 297.499 1033.572, 301.535 " fill="none" stroke="rgb(0, 0, 0)" stroke-linecap="butt" stroke-linejoin="round" stroke-opacity="1.0" stroke-width="3.0" />
            <path d=" M 1033.572, 301.535 1035.771, 305.917 " fill="none" stroke="rgb(0, 0, 0)" stroke-linecap="butt" stroke-linejoin="round" stroke-opacity="1.0" stroke-width="3.0" />
            <path d=" M 1035.771, 305.917 1037.398, 310.600 " fill="none" stroke="rgb(0, 0, 0)" stroke-linecap="butt" stroke-linejoin="round" stroke-opacity="1.0" stroke-width="3.0" />
            <path d=" M 826.931, 105.031 826.931, 115.031 826.931, 125.031 826.931, 135.031 826.931, 145.031 826.931, 155.031 826.931, 165.031 826.931, 175.031 826.931, 176.696 827.001, 184.589 827.253, 192.166 827.748, 199.438 828.547, 206.419 " fill="none" stroke="rgb(0, 0, 0)" stroke-linecap="butt" stroke-linejoin="round" stroke-opacity="1.0" stroke-width="3.0" />
            <path d=" M 828.547, 206.419 829.710, 213.121 " fill="none" stroke="rgb(0, 0, 0)" stroke-linecap="butt" stroke-linejoin="round" stroke-opacity="1.0" stroke-width="3.0" />
            <path d=" M 829.710, 213.121 831.299, 219.556 833.374, 225.736 835.998, 231.675 " fill="none" stroke="rgb(0, 0, 0)" stroke-linecap="butt" stroke-linejoin="round" stroke-opacity="1.0" stroke-width="3.0" />
            <path d=" M 835.998, 231.675 839.230, 237.383 " fill="none" stroke="rgb(0, 0, 0)" stroke-linecap="butt" stroke-linejoin="round" stroke-opacity="1.0" stroke-width="3.0" />
            <path d=" M 839.230, 237.383 843.133, 242.874 847.766, 248.160 853.192, 253.253 856.660, 256.757 859.506, 260.731 861.782, 265.119 " fill="none" stroke="rgb(0, 0, 0)" stroke-linecap="butt" stroke-linejoin="round" stroke-opacity="1.0" stroke-width="3.0" />
            <path d=" M 861.782, 265.119 863.541, 269.865 864.835, 274.915 865.719, 280.212 866.244, 285.701 866.464, 291.328 866.433, 297.035 866.202, 302.769 " fill="none" stroke="rgb(0, 0, 0)" stroke-linecap="butt" stroke-linejoin="round" stroke-opacity="1.0" stroke-width="3.0" />
            <path d=" M 977.617, 290.646 981.653, 287.919 986.035, 285.720 990.718, 284.092 " fill="none" stroke="rgb(0, 0, 0)" stroke-linecap="butt" stroke-linejoin="round" stroke-opacity="1.0" stroke-width="3.0" />
            <path d=" M 973.972, 347.519 970.763, 343.874 968.037, 339.838 965.837, 335.456 964.210, 330.773 963.201, 325.835 962.854, 320.687 963.201, 315.538 964.210, 310.600 965.837, 305.917 968.037, 301.535 970.763, 297.499 973.972, 293.854 977.617, 290.646 " fill="none" stroke="rgb(0, 0, 0)" stroke-linecap="butt" stroke-linejoin="round" stroke-opacity="1.0" stroke-width="3.0" />
            <path d=" M 865.825, 308.473 865.355, 314.092 864.807, 322.011 864.681, 328.866 864.969, 334.709 865.667, 339.592 866.766, 343.564 868.263, 346.678 " fill="none" stroke="rgb(0, 0, 0)" stroke-linecap="butt" stroke-linejoin="round" stroke-opacity="1.0" stroke-width="3.0" />
            <path d=" M 1038.755, 320.687 1038.408, 325.835 1037.398, 330.773 1035.771, 335.456 1033.572, 339.838 1030.845, 343.874 1027.637, 347.519 1023.992, 350.728 1019.956, 353.454 1015.574, 355.654 " fill="none" stroke="rgb(0, 0, 0)" stroke-linecap="butt" stroke-linejoin="round" stroke-opacity="1.0" stroke-width="3.0" />
            <path d=" M 868.263, 346.678 870.149, 348.983 " fill="none" stroke="rgb(0, 0, 0)" stroke-linecap="butt" stroke-linejoin="round" stroke-opacity="1.0" stroke-width="3.0" />
            <path d=" M 1010.891, 357.281 1005.953, 358.291 1000.804, 358.637 995.656, 358.290 990.718, 357.281 986.035, 355.654 981.653, 353.454 977.617, 350.728 973.972, 347.519 " fill="none" stroke="rgb(0, 0, 0)" stroke-linecap="butt" stroke-linejoin="round" stroke-opacity="1.0" stroke-width="3.0" />
            <path d=" M 870.149, 348.983 872.420, 350.532 " fill="none" stroke="rgb(0, 0, 0)" stroke-linecap="butt" stroke-linejoin="round" stroke-opacity="1.0" stroke-width="3.0" />
            <path d=" M 885.224, 350.182 890.108, 349.121 894.435, 349.090 898.209, 349.976 901.434, 351.665 904.114, 354.045 906.253, 357.003 " fill="none" stroke="rgb(0, 0, 0)" stroke-linecap="butt" stroke-linejoin="round" stroke-opacity="1.0" stroke-width="3.0" />
            <path d=" M 878.090, 351.564 881.477, 351.150 885.224, 350.182 " fill="none" stroke="rgb(0, 0, 0)" stroke-linecap="butt" stroke-linejoin="round" stroke-opacity="1.0" stroke-width="3.0" />
            <path d=" M 872.420, 350.532 875.069, 351.376 " fill="none" stroke="rgb(0, 0, 0)" stroke-linecap="butt" stroke-linejoin="round" stroke-opacity="1.0" stroke-width="3.0" />
            <path d=" M 875.069, 351.376 878.090, 351.564 " fill="none" stroke="rgb(0, 0, 0)" stroke-linecap="butt" stroke-linejoin="round" stroke-opacity="1.0" stroke-width="3.0" />
            <path d=" M 906.253, 357.003 907.854, 360.425 " fill="none" stroke="rgb(0, 0, 0)" stroke-linecap="butt" stroke-linejoin="round" stroke-opacity="1.0" stroke-width="3.0" />
            <path d=" M 1024.299, 565.979 1024.666, 571.428 " fill="none" stroke="rgb(0, 0, 0)" stroke-linecap="butt" stroke-linejoin="round" stroke-opacity="1.0" stroke-width="3.0" />
            <path d=" M 959.963, 539.635 964.235, 536.750 968.872, 534.422 973.828, 532.700 979.054, 531.632 984.503, 531.265 989.951, 531.632 995.178, 532.700 1000.133, 534.422 1004.771, 536.750 1009.043, 539.635 1012.810, 542.934 1016.295, 546.888 1019.181, 551.160 1021.509, 555.797 1023.231, 560.753 " fill="none" stroke="rgb(0, 0, 0)" stroke-linecap="butt" stroke-linejoin="round" stroke-opacity="1.0" stroke-width="3.0" />
            <path d=" M 1023.231, 560.753 1024.299, 565.979 " fill="none" stroke="rgb(0, 0, 0)" stroke-linecap="butt" stroke-linejoin="round" stroke-opacity="1.0" stroke-width="3.0" />
            <path d=" M 907.854, 360.425 908.923, 364.198 " fill="none" stroke="rgb(0, 0, 0)" stroke-linecap="butt" stroke-linejoin="round" stroke-opacity="1.0" stroke-width="3.0" />
            <path d=" M 908.923, 364.198 909.462, 368.209 " fill="none" stroke="rgb(0, 0, 0)" stroke-linecap="butt" stroke-linejoin="round" stroke-opacity="1.0" stroke-width="3.0" />
            <path d=" M 909.462, 368.209 909.477, 372.344 " fill="none" stroke="rgb(0, 0, 0)" stroke-linecap="butt" stroke-linejoin="round" stroke-opacity="1.0" stroke-width="3.0" />
            <path d=" M 909.477, 372.344 908.970, 376.491 907.946, 380.537 906.039, 387.007 904.853, 392.314 904.267, 396.702 904.160, 400.415 904.408, 403.696 " fill="none" stroke="rgb(0, 0, 0)" stroke-linecap="butt" stroke-linejoin="round" stroke-opacity="1.0" stroke-width="3.0" />
            <path d=" M 904.408, 403.696 904.889, 406.791 905.482, 409.942 906.063, 413.394 906.512, 417.391 " fill="none" stroke="rgb(0, 0, 0)" stroke-linecap="butt" stroke-linejoin="round" stroke-opacity="1.0" stroke-width="3.0" />
            <path d=" M 906.512, 417.391 906.705, 422.177 " fill="none" stroke="rgb(0, 0, 0)" stroke-linecap="butt" stroke-linejoin="round" stroke-opacity="1.0" stroke-width="3.0" />
            <path d=" M 906.521, 427.997 905.837, 435.093 904.967, 444.236 904.637, 452.722 904.727, 460.558 905.119, 467.752 905.692, 474.311 906.326, 480.241 " fill="none" stroke="rgb(0, 0, 0)" stroke-linecap="butt" stroke-linejoin="round" stroke-opacity="1.0" stroke-width="3.0" />
            <path d=" M 906.326, 480.241 906.902, 485.552 907.300, 490.249 " fill="none" stroke="rgb(0, 0, 0)" stroke-linecap="butt" stroke-linejoin="round" stroke-opacity="1.0" stroke-width="3.0" />
            <path d=" M 907.300, 490.249 907.400, 494.340 907.082, 497.833 906.227, 500.735 904.714, 503.053 903.322, 504.333 901.681, 505.449 899.812, 506.388 897.737, 507.139 895.476, 507.690 893.051, 508.032 890.482, 508.152 " fill="none" stroke="rgb(0, 0, 0)" stroke-linecap="butt" stroke-linejoin="round" stroke-opacity="1.0" stroke-width="3.0" />
            <path d=" M 879.193, 506.190 876.223, 505.032 873.095, 504.385 870.492, 505.328 868.384, 507.747 866.741, 511.524 865.534, 516.543 864.732, 522.689 864.306, 529.845 " fill="none" stroke="rgb(0, 0, 0)" stroke-linecap="butt" stroke-linejoin="round" stroke-opacity="1.0" stroke-width="3.0" />
            <path d=" M 887.791, 508.039 884.998, 507.682 882.125, 507.069 879.193, 506.190 " fill="none" stroke="rgb(0, 0, 0)" stroke-linecap="butt" stroke-linejoin="round" stroke-opacity="1.0" stroke-width="3.0" />
            <path d=" M 947.497, 555.797 949.825, 551.160 952.710, 546.888 956.106, 543.031 959.963, 539.635 " fill="none" stroke="rgb(0, 0, 0)" stroke-linecap="butt" stroke-linejoin="round" stroke-opacity="1.0" stroke-width="3.0" />
            <path d=" M 864.226, 537.895 864.461, 546.722 864.983, 556.210 865.761, 566.244 " fill="none" stroke="rgb(0, 0, 0)" stroke-linecap="butt" stroke-linejoin="round" stroke-opacity="1.0" stroke-width="3.0" />
            <path d=" M 945.775, 560.753 947.497, 555.797 " fill="none" stroke="rgb(0, 0, 0)" stroke-linecap="butt" stroke-linejoin="round" stroke-opacity="1.0" stroke-width="3.0" />
            <path d=" M 944.707, 565.979 945.775, 560.753 " fill="none" stroke="rgb(0, 0, 0)" stroke-linecap="butt" stroke-linejoin="round" stroke-opacity="1.0" stroke-width="3.0" />
            <path d=" M 964.235, 606.106 959.963, 603.220 956.106, 599.825 952.710, 595.968 949.825, 591.696 947.497, 587.058 945.775, 582.103 944.707, 576.876 944.340, 571.428 944.707, 565.979 " fill="none" stroke="rgb(0, 0, 0)" stroke-linecap="butt" stroke-linejoin="round" stroke-opacity="1.0" stroke-width="3.0" />
            <path d=" M 865.761, 566.244 866.717, 576.198 866.766, 576.707 867.184, 583.594 " fill="none" stroke="rgb(0, 0, 0)" stroke-linecap="butt" stroke-linejoin="round" stroke-opacity="1.0" stroke-width="3.0" />
            <path d=" M 1024.666, 571.428 1024.299, 576.876 1023.231, 582.103 1021.509, 587.058 1019.181, 591.696 1016.295, 595.968 1012.900, 599.825 1009.043, 603.220 1004.771, 606.106 " fill="none" stroke="rgb(0, 0, 0)" stroke-linecap="butt" stroke-linejoin="round" stroke-opacity="1.0" stroke-width="3.0" />
            <path d=" M 867.184, 583.594 867.127, 591.039 866.690, 599.027 865.968, 607.545 865.056, 616.577 " fill="none" stroke="rgb(0, 0, 0)" stroke-linecap="butt" stroke-linejoin="round" stroke-opacity="1.0" stroke-width="3.0" />
            <path d=" M 1016.295, 693.482 1019.181, 697.754 1021.459, 702.271 1023.231, 707.347 1024.299, 712.573 1024.666, 718.022 1024.299, 723.470 1023.231, 728.697 1021.509, 733.652 1019.181, 738.290 1016.295, 742.562 1012.900, 746.419 1009.043, 749.814 1004.771, 752.700 1000.133, 755.028 995.178, 756.750 989.951, 757.818 984.503, 758.185 " fill="none" stroke="rgb(0, 0, 0)" stroke-linecap="butt" stroke-linejoin="round" stroke-opacity="1.0" stroke-width="3.0" />
            <path d=" M 1004.771, 606.106 1000.133, 608.434 995.178, 610.156 989.951, 611.224 984.503, 611.591 979.054, 611.224 973.828, 610.156 968.872, 608.434 " fill="none" stroke="rgb(0, 0, 0)" stroke-linecap="butt" stroke-linejoin="round" stroke-opacity="1.0" stroke-width="3.0" />
            <path d=" M 945.775, 707.347 947.497, 702.391 949.825, 697.754 952.710, 693.482 956.106, 689.625 959.963, 686.229 964.235, 683.344 968.872, 681.016 973.828, 679.294 979.054, 678.226 984.503, 677.859 989.951, 678.226 995.178, 679.294 1000.133, 681.016 1004.771, 683.344 1009.043, 686.229 1012.900, 689.625 " fill="none" stroke="rgb(0, 0, 0)" stroke-linecap="butt" stroke-linejoin="round" stroke-opacity="1.0" stroke-width="3.0" />
            <path d=" M 1012.900, 689.625 1016.295, 693.482 " fill="none" stroke="rgb(0, 0, 0)" stroke-linecap="butt" stroke-linejoin="round" stroke-opacity="1.0" stroke-width="3.0" />
            <path d=" M 865.056, 616.577 864.049, 626.108 863.043, 636.126 862.177, 646.088 862.131, 646.615 861.474, 656.593 861.410, 657.560 861.027, 667.552 860.974, 668.947 " fill="none" stroke="rgb(0, 0, 0)" stroke-linecap="butt" stroke-linejoin="round" stroke-opacity="1.0" stroke-width="3.0" />
            <path d=" M 860.918, 680.763 861.261, 690.757 861.337, 692.991 862.643, 702.412 865.182, 709.913 868.633, 715.751 872.672, 720.182 876.975, 723.463 881.219, 725.848 885.080, 727.595 888.235, 728.960 890.361, 730.199 891.133, 731.568 890.229, 733.324 887.325, 735.722 " fill="none" stroke="rgb(0, 0, 0)" stroke-linecap="butt" stroke-linejoin="round" stroke-opacity="1.0" stroke-width="3.0" />
            <path d=" M 944.707, 723.470 944.340, 718.022 944.707, 712.573 945.775, 707.347 " fill="none" stroke="rgb(0, 0, 0)" stroke-linecap="butt" stroke-linejoin="round" stroke-opacity="1.0" stroke-width="3.0" />
            <path d=" M 979.054, 757.818 973.828, 756.750 968.872, 755.028 964.235, 752.700 959.963, 749.814 956.106, 746.419 952.710, 742.562 949.825, 738.290 947.497, 733.652 945.775, 728.697 " fill="none" stroke="rgb(0, 0, 0)" stroke-linecap="butt" stroke-linejoin="round" stroke-opacity="1.0" stroke-width="3.0" />
            <path d=" M 887.325, 735.722 884.522, 738.670 883.924, 741.851 885.104, 745.254 887.636, 748.870 891.093, 752.691 895.049, 756.707 " fill="none" stroke="rgb(0, 0, 0)" stroke-linecap="butt" stroke-linejoin="round" stroke-opacity="1.0" stroke-width="3.0" />
            <path d=" M 1023.231, 853.177 1024.299, 858.403 " fill="none" stroke="rgb(0, 0, 0)" stroke-linecap="butt" stroke-linejoin="round" stroke-opacity="1.0" stroke-width="3.0" />
            <path d=" M 895.049, 756.707 899.076, 760.909 902.749, 765.288 905.640, 769.834 907.323, 774.539 907.371, 779.394 905.357, 784.389 903.120, 790.071 902.518, 796.853 903.155, 804.523 904.638, 812.869 " fill="none" stroke="rgb(0, 0, 0)" stroke-linecap="butt" stroke-linejoin="round" stroke-opacity="1.0" stroke-width="3.0" />
            <path d=" M 979.054, 824.055 984.503, 823.689 989.951, 824.055 995.178, 825.124 1000.133, 826.846 1004.771, 829.173 1009.043, 832.059 1012.900, 835.454 1016.295, 839.312 1019.181, 843.583 1021.509, 848.221 1023.231, 853.177 " fill="none" stroke="rgb(0, 0, 0)" stroke-linecap="butt" stroke-linejoin="round" stroke-opacity="1.0" stroke-width="3.0" />
            <path d=" M 904.638, 812.869 906.571, 821.677 908.560, 830.736 910.210, 839.834 911.126, 848.758 910.913, 857.296 909.177, 865.236 " fill="none" stroke="rgb(0, 0, 0)" stroke-linecap="butt" stroke-linejoin="round" stroke-opacity="1.0" stroke-width="3.0" />
            <path d=" M 973.828, 825.124 979.054, 824.055 " fill="none" stroke="rgb(0, 0, 0)" stroke-linecap="butt" stroke-linejoin="round" stroke-opacity="1.0" stroke-width="3.0" />
            <path d=" M 968.872, 826.846 973.828, 825.124 " fill="none" stroke="rgb(0, 0, 0)" stroke-linecap="butt" stroke-linejoin="round" stroke-opacity="1.0" stroke-width="3.0" />
            <path d=" M 956.106, 835.454 959.963, 832.059 964.235, 829.173 968.872, 826.846 " fill="none" stroke="rgb(0, 0, 0)" stroke-linecap="butt" stroke-linejoin="round" stroke-opacity="1.0" stroke-width="3.0" />
            <path d=" M 952.710, 839.312 956.106, 835.454 " fill="none" stroke="rgb(0, 0, 0)" stroke-linecap="butt" stroke-linejoin="round" stroke-opacity="1.0" stroke-width="3.0" />
            <path d=" M 949.825, 843.583 952.710, 839.312 " fill="none" stroke="rgb(0, 0, 0)" stroke-linecap="butt" stroke-linejoin="round" stroke-opacity="1.0" stroke-width="3.0" />
            <path d=" M 947.497, 848.221 949.825, 843.583 " fill="none" stroke="rgb(0, 0, 0)" stroke-linecap="butt" stroke-linejoin="round" stroke-opacity="1.0" stroke-width="3.0" />
            <path d=" M 945.775, 853.177 947.497, 848.221 " fill="none" stroke="rgb(0, 0, 0)" stroke-linecap="butt" stroke-linejoin="round" stroke-opacity="1.0" stroke-width="3.0" />
            <path d=" M 944.707, 858.403 945.775, 853.177 " fill="none" stroke="rgb(0, 0, 0)" stroke-linecap="butt" stroke-linejoin="round" stroke-opacity="1.0" stroke-width="3.0" />
            <path d=" M 945.775, 874.526 944.707, 869.300 944.340, 863.852 944.707, 858.403 " fill="none" stroke="rgb(0, 0, 0)" stroke-linecap="butt" stroke-linejoin="round" stroke-opacity="1.0" stroke-width="3.0" />
            <path d=" M 1024.299, 858.403 1024.666, 863.852 1024.299, 869.300 1023.231, 874.526 " fill="none" stroke="rgb(0, 0, 0)" stroke-linecap="butt" stroke-linejoin="round" stroke-opacity="1.0" stroke-width="3.0" />
            <path d=" M 956.106, 892.249 952.710, 888.391 949.825, 884.120 947.497, 879.482 945.775, 874.526 " fill="none" stroke="rgb(0, 0, 0)" stroke-linecap="butt" stroke-linejoin="round" stroke-opacity="1.0" stroke-width="3.0" />
            <path d=" M 905.522, 872.365 899.554, 878.472 895.516, 882.748 894.141, 887.119 894.911, 891.562 897.308, 896.050 900.814, 900.557 904.912, 905.060 909.084, 909.532 " fill="none" stroke="rgb(0, 0, 0)" stroke-linecap="butt" stroke-linejoin="round" stroke-opacity="1.0" stroke-width="3.0" />
            <path d=" M 1023.231, 874.526 1021.509, 879.482 1019.181, 884.120 1016.295, 888.391 1012.900, 892.249 1009.043, 895.644 " fill="none" stroke="rgb(0, 0, 0)" stroke-linecap="butt" stroke-linejoin="round" stroke-opacity="1.0" stroke-width="3.0" />
            <path d=" M 1009.043, 895.644 1004.771, 898.530 1000.133, 900.857 995.178, 902.579 " fill="none" stroke="rgb(0, 0, 0)" stroke-linecap="butt" stroke-linejoin="round" stroke-opacity="1.0" stroke-width="3.0" />
            <path d=" M 1023.231, 999.883 1024.299, 1005.109 " fill="none" stroke="rgb(0, 0, 0)" stroke-linecap="butt" stroke-linejoin="round" stroke-opacity="1.0" stroke-width="3.0" />
            <path d=" M 995.178, 902.579 989.951, 903.648 984.503, 904.015 979.054, 903.648 973.828, 902.579 968.872, 900.857 964.235, 898.530 " fill="none" stroke="rgb(0, 0, 0)" stroke-linecap="butt" stroke-linejoin="round" stroke-opacity="1.0" stroke-width="3.0" />
            <path d=" M 1000.133, 973.552 1004.771, 975.880 1009.043, 978.765 1012.900, 982.161 1016.295, 986.018 1019.181, 990.290 1021.459, 994.807 1023.231, 999.883 " fill="none" stroke="rgb(0, 0, 0)" stroke-linecap="butt" stroke-linejoin="round" stroke-opacity="1.0" stroke-width="3.0" />
            <path d=" M 909.084, 909.532 912.811, 913.947 " fill="none" stroke="rgb(0, 0, 0)" stroke-linecap="butt" stroke-linejoin="round" stroke-opacity="1.0" stroke-width="3.0" />
            <path d=" M 912.811, 913.947 915.578, 918.281 916.864, 922.509 916.154, 926.604 " fill="none" stroke="rgb(0, 0, 0)" stroke-linecap="butt" stroke-linejoin="round" stroke-opacity="1.0" stroke-width="3.0" />
            <path d=" M 916.154, 926.604 912.929, 930.541 908.741, 936.146 906.823, 943.631 906.678, 952.624 " fill="none" stroke="rgb(0, 0, 0)" stroke-linecap="butt" stroke-linejoin="round" stroke-opacity="1.0" stroke-width="3.0" />
            <path d=" M 995.178, 971.830 1000.133, 973.552 " fill="none" stroke="rgb(0, 0, 0)" stroke-linecap="butt" stroke-linejoin="round" stroke-opacity="1.0" stroke-width="3.0" />
            <path d=" M 964.235, 975.880 968.872, 973.552 973.828, 971.830 979.054, 970.762 984.503, 970.395 989.951, 970.762 995.178, 971.830 " fill="none" stroke="rgb(0, 0, 0)" stroke-linecap="butt" stroke-linejoin="round" stroke-opacity="1.0" stroke-width="3.0" />
            <path d=" M 906.678, 952.624 907.789, 962.562 907.810, 962.750 909.540, 972.599 909.722, 973.635 911.635, 983.451 911.918, 984.906 913.651, 994.755 913.903, 996.190 915.063, 1006.122 915.179, 1007.111 915.249, 1017.111 915.250, 1017.298 913.620, 1026.374 909.792, 1033.968 903.271, 1039.705 895.615, 1043.960 " fill="none" stroke="rgb(0, 0, 0)" stroke-linecap="butt" stroke-linejoin="round" stroke-opacity="1.0" stroke-width="3.0" />
            <path d=" M 959.963, 978.765 964.235, 975.880 " fill="none" stroke="rgb(0, 0, 0)" stroke-linecap="butt" stroke-linejoin="round" stroke-opacity="1.0" stroke-width="3.0" />
            <path d=" M 956.106, 982.161 959.963, 978.765 " fill="none" stroke="rgb(0, 0, 0)" stroke-linecap="butt" stroke-linejoin="round" stroke-opacity="1.0" stroke-width="3.0" />
            <path d=" M 952.710, 986.018 956.106, 982.161 " fill="none" stroke="rgb(0, 0, 0)" stroke-linecap="butt" stroke-linejoin="round" stroke-opacity="1.0" stroke-width="3.0" />
            <path d=" M 949.825, 990.290 952.710, 986.018 " fill="none" stroke="rgb(0, 0, 0)" stroke-linecap="butt" stroke-linejoin="round" stroke-opacity="1.0" stroke-width="3.0" />
            <path d=" M 947.497, 994.927 949.825, 990.290 " fill="none" stroke="rgb(0, 0, 0)" stroke-linecap="butt" stroke-linejoin="round" stroke-opacity="1.0" stroke-width="3.0" />
            <path d=" M 964.235, 1045.236 959.963, 1042.350 956.106, 1038.955 952.710, 1035.098 949.825, 1030.826 947.497, 1026.188 945.775, 1021.233 944.707, 1016.006 944.340, 1010.558 944.707, 1005.109 945.775, 999.883 947.497, 994.927 " fill="none" stroke="rgb(0, 0, 0)" stroke-linecap="butt" stroke-linejoin="round" stroke-opacity="1.0" stroke-width="3.0" />
            <path d=" M 1024.299, 1005.109 1024.666, 1010.558 " fill="none" stroke="rgb(0, 0, 0)" stroke-linecap="butt" stroke-linejoin="round" stroke-opacity="1.0" stroke-width="3.0" />
            <path d=" M 1024.299, 1016.006 1023.231, 1021.233 1021.509, 1026.188 1019.181, 1030.826 " fill="none" stroke="rgb(0, 0, 0)" stroke-linecap="butt" stroke-linejoin="round" stroke-opacity="1.0" stroke-width="3.0" />
            <path d=" M 1019.181, 1030.826 1016.295, 1035.098 1012.900, 1038.955 1009.043, 1042.350 1004.771, 1045.236 1000.133, 1047.564 " fill="none" stroke="rgb(0, 0, 0)" stroke-linecap="butt" stroke-linejoin="round" stroke-opacity="1.0" stroke-width="3.0" />
            <path d=" M 989.951, 1050.354 984.503, 1050.721 979.054, 1050.354 973.828, 1049.286 968.872, 1047.564 964.235, 1045.236 " fill="none" stroke="rgb(0, 0, 0)" stroke-linecap="butt" stroke-linejoin="round" stroke-opacity="1.0" stroke-width="3.0" />
            <path d=" M 1023.231, 1146.395 1024.299, 1151.621 " fill="none" stroke="rgb(0, 0, 0)" stroke-linecap="butt" stroke-linejoin="round" stroke-opacity="1.0" stroke-width="3.0" />
            <path d=" M 1019.181, 1136.802 1021.459, 1141.319 1023.231, 1146.395 " fill="none" stroke="rgb(0, 0, 0)" stroke-linecap="butt" stroke-linejoin="round" stroke-opacity="1.0" stroke-width="3.0" />
            <path d=" M 888.728, 1047.536 882.633, 1050.700 877.353, 1053.719 872.911, 1056.860 869.328, 1060.391 866.628, 1064.580 864.833, 1069.693 863.966, 1075.998 864.049, 1083.763 865.105, 1093.254 " fill="none" stroke="rgb(0, 0, 0)" stroke-linecap="butt" stroke-linejoin="round" stroke-opacity="1.0" stroke-width="3.0" />
            <path d=" M 989.951, 1117.274 995.178, 1118.342 1000.133, 1120.064 1004.771, 1122.392 1009.043, 1125.277 1012.900, 1128.673 1016.295, 1132.530 1019.181, 1136.802 " fill="none" stroke="rgb(0, 0, 0)" stroke-linecap="butt" stroke-linejoin="round" stroke-opacity="1.0" stroke-width="3.0" />
            <path d=" M 865.105, 1093.254 866.864, 1103.098 867.157, 1104.739 868.288, 1114.674 868.333, 1115.068 867.429, 1123.486 864.823, 1130.667 " fill="none" stroke="rgb(0, 0, 0)" stroke-linecap="butt" stroke-linejoin="round" stroke-opacity="1.0" stroke-width="3.0" />
            <path d=" M 984.503, 1116.907 989.951, 1117.274 " fill="none" stroke="rgb(0, 0, 0)" stroke-linecap="butt" stroke-linejoin="round" stroke-opacity="1.0" stroke-width="3.0" />
            <path d=" M 964.235, 1122.392 968.872, 1120.064 973.828, 1118.342 979.054, 1117.274 984.503, 1116.907 " fill="none" stroke="rgb(0, 0, 0)" stroke-linecap="butt" stroke-linejoin="round" stroke-opacity="1.0" stroke-width="3.0" />
            <path d=" M 945.775, 1167.745 944.707, 1162.518 944.340, 1157.070 944.707, 1151.621 945.775, 1146.395 947.497, 1141.439 949.825, 1136.802 952.710, 1132.530 956.106, 1128.673 959.963, 1125.277 964.235, 1122.392 " fill="none" stroke="rgb(0, 0, 0)" stroke-linecap="butt" stroke-linejoin="round" stroke-opacity="1.0" stroke-width="3.0" />
            <path d=" M 864.823, 1130.667 860.890, 1137.289 856.009, 1144.028 850.556, 1151.561 845.241, 1160.032 844.908, 1160.564 840.505, 1169.543 839.441, 1171.714 836.127, 1181.149 834.533, 1185.687 " fill="none" stroke="rgb(0, 0, 0)" stroke-linecap="butt" stroke-linejoin="round" stroke-opacity="1.0" stroke-width="3.0" />
            <path d=" M 1024.299, 1151.621 1024.666, 1157.070 " fill="none" stroke="rgb(0, 0, 0)" stroke-linecap="butt" stroke-linejoin="round" stroke-opacity="1.0" stroke-width="3.0" />
            <path d=" M 1024.666, 1157.070 1024.299, 1162.518 1023.231, 1167.745 1021.509, 1172.700 1019.181, 1177.338 1016.295, 1181.610 1012.900, 1185.467 1009.043, 1188.862 " fill="none" stroke="rgb(0, 0, 0)" stroke-linecap="butt" stroke-linejoin="round" stroke-opacity="1.0" stroke-width="3.0" />
            <path d=" M 973.828, 1195.798 968.872, 1194.076 964.235, 1191.748 959.963, 1188.862 956.106, 1185.467 952.710, 1181.609 949.825, 1177.338 947.497, 1172.700 " fill="none" stroke="rgb(0, 0, 0)" stroke-linecap="butt" stroke-linejoin="round" stroke-opacity="1.0" stroke-width="3.0" />
            <path d=" M 1009.043, 1188.862 1004.771, 1191.748 1000.133, 1194.076 995.178, 1195.798 989.951, 1196.866 984.503, 1197.233 979.054, 1196.866 " fill="none" stroke="rgb(0, 0, 0)" stroke-linecap="butt" stroke-linejoin="round" stroke-opacity="1.0" stroke-width="3.0" />
            <path d=" M 1000.133, 1266.416 1004.771, 1268.744 1009.043, 1271.630 1012.900, 1275.025 1016.295, 1278.883 1019.181, 1283.154 1021.459, 1287.672 1023.231, 1292.748 1024.299, 1297.974 1024.666, 1303.422 1024.299, 1308.871 1023.231, 1314.097 1021.509, 1319.053 1019.181, 1323.690 1016.295, 1327.962 " fill="none" stroke="rgb(0, 0, 0)" stroke-linecap="butt" stroke-linejoin="round" stroke-opacity="1.0" stroke-width="3.0" />
            <path d=" M 945.775, 1292.748 947.497, 1287.792 949.825, 1283.154 952.710, 1278.883 956.106, 1275.025 959.963, 1271.630 964.235, 1268.744 968.872, 1266.416 973.828, 1264.694 979.054, 1263.626 984.503, 1263.259 989.951, 1263.626 995.178, 1264.694 1000.133, 1266.416 " fill="none" stroke="rgb(0, 0, 0)" stroke-linecap="butt" stroke-linejoin="round" stroke-opacity="1.0" stroke-width="3.0" />
            <path d=" M 830.561, 1203.159 829.341, 1213.085 828.122, 1223.010 827.901, 1224.808 827.535, 1234.801 827.169, 1244.794 826.931, 1251.309 826.931, 1261.309 826.931, 1271.309 826.931, 1281.309 826.931, 1291.309 826.931, 1301.309 826.931, 1311.309 826.931, 1321.309 826.931, 1331.309 826.931, 1341.309 826.931, 1351.309 826.931, 1361.309 826.931, 1371.309 826.931, 1381.309 826.931, 1391.309 826.931, 1401.309 826.931, 1411.309 826.931, 1421.309 826.931, 1431.309 826.931, 1441.309 826.931, 1451.309 826.931, 1461.309 826.931, 1471.309 826.931, 1481.309 826.931, 1491.309 826.931, 1501.309 826.931, 1511.309 826.931, 1521.309 826.931, 1531.309 826.931, 1541.309 826.931, 1551.309 826.931, 1561.309 826.931, 1571.309 826.931, 1581.309 826.931, 1591.309 826.931, 1601.309 826.931, 1611.309 826.931, 1621.309 826.931, 1631.309 826.931, 1641.309 826.931, 1651.309 826.931, 1661.309 826.931, 1671.309 826.931, 1681.309 826.931, 1691.309 826.931, 1701.309 826.931, 1711.309 826.931, 1721.309 826.931, 1731.309 826.931, 1741.309 826.931, 1751.309 826.931, 1761.309 826.931, 1771.309 826.931, 1781.309 826.931, 1791.309 826.931, 1801.309 826.931, 1814.969 " fill="none" stroke="rgb(0, 0, 0)" stroke-linecap="butt" stroke-linejoin="round" stroke-opacity="1.0" stroke-width="3.0" />
            <path d=" M 989.951, 1343.219 984.503, 1343.585 979.054, 1343.219 973.828, 1342.150 968.872, 1340.428 964.235, 1338.100 959.963, 1335.215 956.106, 1331.819 952.710, 1327.962 949.825, 1323.690 947.497, 1319.053 945.775, 1314.097 944.707, 1308.871 944.340, 1303.422 944.707, 1297.974 945.775, 1292.748 " fill="none" stroke="rgb(0, 0, 0)" stroke-linecap="butt" stroke-linejoin="round" stroke-opacity="1.0" stroke-width="3.0" />
            <path d=" M 1012.900, 1331.819 1009.043, 1335.215 1004.771, 1338.100 1000.133, 1340.428 995.178, 1342.150 989.951, 1343.219 " fill="none" stroke="rgb(0, 0, 0)" stroke-linecap="butt" stroke-linejoin="round" stroke-opacity="1.0" stroke-width="3.0" />
            <path d=" M 1021.509, 1433.754 1023.231, 1438.710 1024.299, 1443.936 1024.666, 1449.385 1024.299, 1454.833 1023.231, 1460.059 1021.509, 1465.015 1019.181, 1469.653 1016.295, 1473.924 1012.900, 1477.782 1009.043, 1481.177 " fill="none" stroke="rgb(0, 0, 0)" stroke-linecap="butt" stroke-linejoin="round" stroke-opacity="1.0" stroke-width="3.0" />
            <path d=" M 947.497, 1465.015 945.775, 1460.059 944.707, 1454.833 944.340, 1449.385 944.707, 1443.936 945.775, 1438.710 947.497, 1433.754 " fill="none" stroke="rgb(0, 0, 0)" stroke-linecap="butt" stroke-linejoin="round" stroke-opacity="1.0" stroke-width="3.0" />
            <path d=" M 947.497, 1433.754 949.825, 1429.116 952.710, 1424.845 956.106, 1420.987 959.963, 1417.592 964.235, 1414.706 968.872, 1412.379 973.828, 1410.657 979.054, 1409.588 " fill="none" stroke="rgb(0, 0, 0)" stroke-linecap="butt" stroke-linejoin="round" stroke-opacity="1.0" stroke-width="3.0" />
            <path d=" M 979.054, 1409.588 984.503, 1409.222 " fill="none" stroke="rgb(0, 0, 0)" stroke-linecap="butt" stroke-linejoin="round" stroke-opacity="1.0" stroke-width="3.0" />
            <path d=" M 984.503, 1409.222 989.951, 1409.588 " fill="none" stroke="rgb(0, 0, 0)" stroke-linecap="butt" stroke-linejoin="round" stroke-opacity="1.0" stroke-width="3.0" />
            <path d=" M 989.951, 1409.588 995.178, 1410.657 1000.133, 1412.379 1004.771, 1414.706 1009.043, 1417.592 " fill="none" stroke="rgb(0, 0, 0)" stroke-linecap="butt" stroke-linejoin="round" stroke-opacity="1.0" stroke-width="3.0" />
            <path d=" M 1009.043, 1417.592 1012.900, 1420.987 1016.295, 1424.845 1019.181, 1429.116 1021.509, 1433.754 " fill="none" stroke="rgb(0, 0, 0)" stroke-linecap="butt" stroke-linejoin="round" stroke-opacity="1.0" stroke-width="3.0" />
            <path d=" M 959.963, 1481.177 956.106, 1477.782 952.710, 1473.924 949.825, 1469.653 947.497, 1465.015 " fill="none" stroke="rgb(0, 0, 0)" stroke-linecap="butt" stroke-linejoin="round" stroke-opacity="1.0" stroke-width="3.0" />
            <path d=" M 973.828, 1488.112 968.872, 1486.390 964.235, 1484.063 959.963, 1481.177 " fill="none" stroke="rgb(0, 0, 0)" stroke-linecap="butt" stroke-linejoin="round" stroke-opacity="1.0" stroke-width="3.0" />
            <path d=" M 1009.043, 1481.177 1004.771, 1484.063 1000.133, 1486.390 995.178, 1488.112 989.951, 1489.181 " fill="none" stroke="rgb(0, 0, 0)" stroke-linecap="butt" stroke-linejoin="round" stroke-opacity="1.0" stroke-width="3.0" />
            <path d=" M 1016.295, 1571.180 1019.181, 1575.452 1021.459, 1579.969 1023.231, 1585.045 " fill="none" stroke="rgb(0, 0, 0)" stroke-linecap="butt" stroke-linejoin="round" stroke-opacity="1.0" stroke-width="3.0" />
            <path d=" M 944.340, 1595.720 944.707, 1590.271 945.775, 1585.045 947.497, 1580.089 949.825, 1575.452 952.710, 1571.180 " fill="none" stroke="rgb(0, 0, 0)" stroke-linecap="butt" stroke-linejoin="round" stroke-opacity="1.0" stroke-width="3.0" />
            <path d=" M 952.710, 1571.180 956.106, 1567.323 " fill="none" stroke="rgb(0, 0, 0)" stroke-linecap="butt" stroke-linejoin="round" stroke-opacity="1.0" stroke-width="3.0" />
            <path d=" M 956.106, 1567.323 959.963, 1563.927 964.235, 1561.042 968.872, 1558.714 973.828, 1556.992 979.054, 1555.924 984.503, 1555.557 989.951, 1555.924 " fill="none" stroke="rgb(0, 0, 0)" stroke-linecap="butt" stroke-linejoin="round" stroke-opacity="1.0" stroke-width="3.0" />
            <path d=" M 989.951, 1555.924 995.178, 1556.992 1000.133, 1558.714 1004.771, 1561.042 1009.043, 1563.927 1012.900, 1567.323 " fill="none" stroke="rgb(0, 0, 0)" stroke-linecap="butt" stroke-linejoin="round" stroke-opacity="1.0" stroke-width="3.0" />
            <path d=" M 1012.900, 1567.323 1016.295, 1571.180 " fill="none" stroke="rgb(0, 0, 0)" stroke-linecap="butt" stroke-linejoin="round" stroke-opacity="1.0" stroke-width="3.0" />
            <path d=" M 1023.231, 1585.045 1024.299, 1590.271 1024.666, 1595.720 1024.299, 1601.168 1023.231, 1606.394 1021.509, 1611.350 " fill="none" stroke="rgb(0, 0, 0)" stroke-linecap="butt" stroke-linejoin="round" stroke-opacity="1.0" stroke-width="3.0" />
            <path d=" M 979.054, 1635.516 973.828, 1634.448 968.872, 1632.726 964.235, 1630.398 959.963, 1627.512 956.106, 1624.117 952.710, 1620.259 949.825, 1615.988 947.497, 1611.350 945.775, 1606.395 " fill="none" stroke="rgb(0, 0, 0)" stroke-linecap="butt" stroke-linejoin="round" stroke-opacity="1.0" stroke-width="3.0" />
            <path d=" M 1021.509, 1611.350 1019.181, 1615.988 1016.295, 1620.259 1012.900, 1624.117 1009.043, 1627.512 1004.771, 1630.398 " fill="none" stroke="rgb(0, 0, 0)" stroke-linecap="butt" stroke-linejoin="round" stroke-opacity="1.0" stroke-width="3.0" />
            <path d=" M 995.178, 1634.448 989.951, 1635.516 984.503, 1635.883 979.054, 1635.516 " fill="none" stroke="rgb(0, 0, 0)" stroke-linecap="butt" stroke-linejoin="round" stroke-opacity="1.0" stroke-width="3.0" />
            <path d=" M 895.392, 1760.238 897.124, 1758.143 899.094, 1756.266 901.255, 1754.626 903.559, 1753.241 905.957, 1752.131 908.402, 1751.314 910.845, 1750.809 913.238, 1750.635 " fill="none" stroke="rgb(0, 0, 0)" stroke-linecap="butt" stroke-linejoin="round" stroke-opacity="1.0" stroke-width="3.0" />
            <path d=" M 913.238, 1750.635 923.238, 1750.623 933.238, 1750.611 943.238, 1750.599 953.238, 1750.587 963.238, 1750.575 973.238, 1750.563 983.238, 1750.551 993.238, 1750.539 1003.238, 1750.527 1007.762, 1750.522 1010.671, 1750.715 1013.461, 1751.283 " fill="none" stroke="rgb(0, 0, 0)" stroke-linecap="butt" stroke-linejoin="round" stroke-opacity="1.0" stroke-width="3.0" />
            <path d=" M 1013.461, 1751.283 1016.107, 1752.201 1018.583, 1753.444 1020.863, 1754.985 " fill="none" stroke="rgb(0, 0, 0)" stroke-linecap="butt" stroke-linejoin="round" stroke-opacity="1.0" stroke-width="3.0" />
            <path d=" M 1020.863, 1754.985 1022.923, 1756.798 1024.736, 1758.859 1026.276, 1761.140 1027.519, 1763.617 1028.438, 1766.264 " fill="none" stroke="rgb(0, 0, 0)" stroke-linecap="butt" stroke-linejoin="round" stroke-opacity="1.0" stroke-width="3.0" />
            <path d=" M 893.948, 1762.533 895.392, 1760.238 " fill="none" stroke="rgb(0, 0, 0)" stroke-linecap="butt" stroke-linejoin="round" stroke-opacity="1.0" stroke-width="3.0" />
            <path d=" M 892.838, 1765.009 893.948, 1762.533 " fill="none" stroke="rgb(0, 0, 0)" stroke-linecap="butt" stroke-linejoin="round" stroke-opacity="1.0" stroke-width="3.0" />
            <path d=" M 891.884, 1773.529 891.816, 1770.426 892.111, 1767.646 892.838, 1765.009 " fill="none" stroke="rgb(0, 0, 0)" stroke-linecap="butt" stroke-linejoin="round" stroke-opacity="1.0" stroke-width="3.0" />
            <path d=" M 1028.438, 1766.264 1029.009, 1769.055 " fill="none" stroke="rgb(0, 0, 0)" stroke-linecap="butt" stroke-linejoin="round" stroke-opacity="1.0" stroke-width="3.0" />
            <path d=" M 1029.009, 1769.055 1029.205, 1771.964 1029.009, 1774.873 1028.438, 1777.664 1027.519, 1780.309 1026.276, 1782.785 1024.736, 1785.066 " fill="none" stroke="rgb(0, 0, 0)" stroke-linecap="butt" stroke-linejoin="round" stroke-opacity="1.0" stroke-width="3.0" />
            <path d=" M 895.160, 1784.437 893.863, 1781.992 892.894, 1779.340 892.239, 1776.510 891.884, 1773.529 " fill="none" stroke="rgb(0, 0, 0)" stroke-linecap="butt" stroke-linejoin="round" stroke-opacity="1.0" stroke-width="3.0" />
            <path d=" M 910.581, 1793.196 907.033, 1792.581 903.895, 1791.591 901.152, 1790.253 898.791, 1788.596 896.798, 1786.648 895.160, 1784.437 " fill="none" stroke="rgb(0, 0, 0)" stroke-linecap="butt" stroke-linejoin="round" stroke-opacity="1.0" stroke-width="3.0" />
            <path d=" M 1024.736, 1785.066 1022.923, 1787.125 1020.863, 1788.938 1018.583, 1790.479 1016.107, 1791.722 1013.461, 1792.641 1010.671, 1793.211 1007.762, 1793.407 997.762, 1793.407 987.762, 1793.407 977.762, 1793.407 967.762, 1793.407 957.762, 1793.407 947.762, 1793.407 937.762, 1793.407 927.762, 1793.407 917.762, 1793.407 914.551, 1793.407 " fill="none" stroke="rgb(0, 0, 0)" stroke-linecap="butt" stroke-linejoin="round" stroke-opacity="1.0" stroke-width="3.0" />
            <path d=" M 899.094, 132.862 897.124, 134.739 " fill="none" stroke="rgb(0, 0, 0)" stroke-linecap="butt" stroke-linejoin="round" stroke-opacity="1.0" stroke-width="3.0" />
            <path d=" M 892.838, 141.604 892.111, 144.242 " fill="none" stroke="rgb(0, 0, 0)" stroke-linecap="butt" stroke-linejoin="round" stroke-opacity="1.0" stroke-width="3.0" />
            <path d=" M 892.894, 155.936 893.863, 158.588 895.160, 161.033 " fill="none" stroke="rgb(0, 0, 0)" stroke-linecap="butt" stroke-linejoin="round" stroke-opacity="1.0" stroke-width="3.0" />
            <path d=" M 896.798, 163.244 898.791, 165.192 901.152, 166.849 " fill="none" stroke="rgb(0, 0, 0)" stroke-linecap="butt" stroke-linejoin="round" stroke-opacity="1.0" stroke-width="3.0" />
            <path d=" M 907.033, 169.177 910.581, 169.792 914.551, 170.003 924.551, 170.003 934.551, 170.003 944.551, 170.003 954.551, 170.003 964.551, 170.003 974.551, 170.003 984.551, 170.003 994.551, 170.003 1004.551, 170.003 1007.762, 170.003 " fill="none" stroke="rgb(0, 0, 0)" stroke-linecap="butt" stroke-linejoin="round" stroke-opacity="1.0" stroke-width="3.0" />
            <path d=" M 835.998, 231.675 833.374, 225.736 " fill="none" stroke="rgb(0, 0, 0)" stroke-linecap="butt" stroke-linejoin="round" stroke-opacity="1.0" stroke-width="3.0" />
            <path d=" M 839.230, 237.383 835.998, 231.675 " fill="none" stroke="rgb(0, 0, 0)" stroke-linecap="butt" stroke-linejoin="round" stroke-opacity="1.0" stroke-width="3.0" />
            <path d=" M 1000.804, 282.736 995.656, 283.083 990.718, 284.092 " fill="none" stroke="rgb(0, 0, 0)" stroke-linecap="butt" stroke-linejoin="round" stroke-opacity="1.0" stroke-width="3.0" />
            <path d=" M 964.210, 310.600 963.201, 315.538 " fill="none" stroke="rgb(0, 0, 0)" stroke-linecap="butt" stroke-linejoin="round" stroke-opacity="1.0" stroke-width="3.0" />
            <path d=" M 870.149, 348.983 868.263, 346.678 " fill="none" stroke="rgb(0, 0, 0)" stroke-linecap="butt" stroke-linejoin="round" stroke-opacity="1.0" stroke-width="3.0" />
            <path d=" M 894.435, 349.090 890.108, 349.121 885.224, 350.182 " fill="none" stroke="rgb(0, 0, 0)" stroke-linecap="butt" stroke-linejoin="round" stroke-opacity="1.0" stroke-width="3.0" />
            <path d=" M 986.035, 355.654 990.718, 357.281 " fill="none" stroke="rgb(0, 0, 0)" stroke-linecap="butt" stroke-linejoin="round" stroke-opacity="1.0" stroke-width="3.0" />
            <path d=" M 1005.953, 358.291 1010.891, 357.281 " fill="none" stroke="rgb(0, 0, 0)" stroke-linecap="butt" stroke-linejoin="round" stroke-opacity="1.0" stroke-width="3.0" />
            <path d=" M 1016.295, 546.888 1012.810, 542.934 " fill="none" stroke="rgb(0, 0, 0)" stroke-linecap="butt" stroke-linejoin="round" stroke-opacity="1.0" stroke-width="3.0" />
            <path d=" M 905.837, 435.093 906.521, 427.997 " fill="none" stroke="rgb(0, 0, 0)" stroke-linecap="butt" stroke-linejoin="round" stroke-opacity="1.0" stroke-width="3.0" />
            <path d=" M 904.637, 452.722 904.967, 444.236 " fill="none" stroke="rgb(0, 0, 0)" stroke-linecap="butt" stroke-linejoin="round" stroke-opacity="1.0" stroke-width="3.0" />
            <path d=" M 905.692, 474.311 905.119, 467.752 " fill="none" stroke="rgb(0, 0, 0)" stroke-linecap="butt" stroke-linejoin="round" stroke-opacity="1.0" stroke-width="3.0" />
            <path d=" M 866.741, 511.524 868.384, 507.747 " fill="none" stroke="rgb(0, 0, 0)" stroke-linecap="butt" stroke-linejoin="round" stroke-opacity="1.0" stroke-width="3.0" />
            <path d=" M 979.054, 531.632 973.828, 532.700 " fill="none" stroke="rgb(0, 0, 0)" stroke-linecap="butt" stroke-linejoin="round" stroke-opacity="1.0" stroke-width="3.0" />
            <path d=" M 949.825, 551.160 947.497, 555.797 " fill="none" stroke="rgb(0, 0, 0)" stroke-linecap="butt" stroke-linejoin="round" stroke-opacity="1.0" stroke-width="3.0" />
            <path d=" M 865.761, 566.244 864.983, 556.210 " fill="none" stroke="rgb(0, 0, 0)" stroke-linecap="butt" stroke-linejoin="round" stroke-opacity="1.0" stroke-width="3.0" />
            <path d=" M 944.340, 571.428 944.707, 576.876 " fill="none" stroke="rgb(0, 0, 0)" stroke-linecap="butt" stroke-linejoin="round" stroke-opacity="1.0" stroke-width="3.0" />
            <path d=" M 1024.299, 576.876 1024.666, 571.428 " fill="none" stroke="rgb(0, 0, 0)" stroke-linecap="butt" stroke-linejoin="round" stroke-opacity="1.0" stroke-width="3.0" />
            <path d=" M 866.690, 599.027 867.127, 591.039 " fill="none" stroke="rgb(0, 0, 0)" stroke-linecap="butt" stroke-linejoin="round" stroke-opacity="1.0" stroke-width="3.0" />
            <path d=" M 956.106, 599.825 959.963, 603.220 " fill="none" stroke="rgb(0, 0, 0)" stroke-linecap="butt" stroke-linejoin="round" stroke-opacity="1.0" stroke-width="3.0" />
            <path d=" M 1023.231, 707.347 1021.460, 702.271 " fill="none" stroke="rgb(0, 0, 0)" stroke-linecap="butt" stroke-linejoin="round" stroke-opacity="1.0" stroke-width="3.0" />
            <path d=" M 964.235, 683.344 959.963, 686.229 " fill="none" stroke="rgb(0, 0, 0)" stroke-linecap="butt" stroke-linejoin="round" stroke-opacity="1.0" stroke-width="3.0" />
            <path d=" M 952.710, 693.482 949.825, 697.754 " fill="none" stroke="rgb(0, 0, 0)" stroke-linecap="butt" stroke-linejoin="round" stroke-opacity="1.0" stroke-width="3.0" />
            <path d=" M 947.497, 702.391 945.775, 707.347 " fill="none" stroke="rgb(0, 0, 0)" stroke-linecap="butt" stroke-linejoin="round" stroke-opacity="1.0" stroke-width="3.0" />
            <path d=" M 865.182, 709.913 862.643, 702.412 " fill="none" stroke="rgb(0, 0, 0)" stroke-linecap="butt" stroke-linejoin="round" stroke-opacity="1.0" stroke-width="3.0" />
            <path d=" M 945.775, 707.347 944.707, 712.573 " fill="none" stroke="rgb(0, 0, 0)" stroke-linecap="butt" stroke-linejoin="round" stroke-opacity="1.0" stroke-width="3.0" />
            <path d=" M 872.672, 720.182 868.633, 715.751 " fill="none" stroke="rgb(0, 0, 0)" stroke-linecap="butt" stroke-linejoin="round" stroke-opacity="1.0" stroke-width="3.0" />
            <path d=" M 1024.299, 723.470 1024.666, 718.022 " fill="none" stroke="rgb(0, 0, 0)" stroke-linecap="butt" stroke-linejoin="round" stroke-opacity="1.0" stroke-width="3.0" />
            <path d=" M 947.497, 733.652 949.825, 738.290 " fill="none" stroke="rgb(0, 0, 0)" stroke-linecap="butt" stroke-linejoin="round" stroke-opacity="1.0" stroke-width="3.0" />
            <path d=" M 956.106, 746.419 959.963, 749.814 " fill="none" stroke="rgb(0, 0, 0)" stroke-linecap="butt" stroke-linejoin="round" stroke-opacity="1.0" stroke-width="3.0" />
            <path d=" M 968.872, 755.028 973.828, 756.750 " fill="none" stroke="rgb(0, 0, 0)" stroke-linecap="butt" stroke-linejoin="round" stroke-opacity="1.0" stroke-width="3.0" />
            <path d=" M 899.076, 760.909 895.049, 756.707 " fill="none" stroke="rgb(0, 0, 0)" stroke-linecap="butt" stroke-linejoin="round" stroke-opacity="1.0" stroke-width="3.0" />
            <path d=" M 907.323, 774.539 905.640, 769.834 " fill="none" stroke="rgb(0, 0, 0)" stroke-linecap="butt" stroke-linejoin="round" stroke-opacity="1.0" stroke-width="3.0" />
            <path d=" M 902.518, 796.853 903.120, 790.071 " fill="none" stroke="rgb(0, 0, 0)" stroke-linecap="butt" stroke-linejoin="round" stroke-opacity="1.0" stroke-width="3.0" />
            <path d=" M 979.054, 824.055 973.828, 825.124 " fill="none" stroke="rgb(0, 0, 0)" stroke-linecap="butt" stroke-linejoin="round" stroke-opacity="1.0" stroke-width="3.0" />
            <path d=" M 959.963, 832.059 956.106, 835.454 " fill="none" stroke="rgb(0, 0, 0)" stroke-linecap="butt" stroke-linejoin="round" stroke-opacity="1.0" stroke-width="3.0" />
            <path d=" M 956.106, 835.454 952.710, 839.312 " fill="none" stroke="rgb(0, 0, 0)" stroke-linecap="butt" stroke-linejoin="round" stroke-opacity="1.0" stroke-width="3.0" />
            <path d=" M 944.707, 858.403 944.340, 863.852 " fill="none" stroke="rgb(0, 0, 0)" stroke-linecap="butt" stroke-linejoin="round" stroke-opacity="1.0" stroke-width="3.0" />
            <path d=" M 968.872, 900.857 973.828, 902.579 " fill="none" stroke="rgb(0, 0, 0)" stroke-linecap="butt" stroke-linejoin="round" stroke-opacity="1.0" stroke-width="3.0" />
            <path d=" M 915.578, 918.281 912.811, 913.947 " fill="none" stroke="rgb(0, 0, 0)" stroke-linecap="butt" stroke-linejoin="round" stroke-opacity="1.0" stroke-width="3.0" />
            <path d=" M 984.503, 970.395 979.054, 970.762 " fill="none" stroke="rgb(0, 0, 0)" stroke-linecap="butt" stroke-linejoin="round" stroke-opacity="1.0" stroke-width="3.0" />
            <path d=" M 968.872, 973.552 964.235, 975.880 " fill="none" stroke="rgb(0, 0, 0)" stroke-linecap="butt" stroke-linejoin="round" stroke-opacity="1.0" stroke-width="3.0" />
            <path d=" M 911.918, 984.906 910.006, 975.091 909.722, 973.635 " fill="none" stroke="rgb(0, 0, 0)" stroke-linecap="butt" stroke-linejoin="round" stroke-opacity="1.0" stroke-width="3.0" />
            <path d=" M 952.710, 986.018 949.825, 990.290 " fill="none" stroke="rgb(0, 0, 0)" stroke-linecap="butt" stroke-linejoin="round" stroke-opacity="1.0" stroke-width="3.0" />
            <path d=" M 949.825, 990.290 947.497, 994.927 " fill="none" stroke="rgb(0, 0, 0)" stroke-linecap="butt" stroke-linejoin="round" stroke-opacity="1.0" stroke-width="3.0" />
            <path d=" M 913.620, 1026.374 915.250, 1017.298 " fill="none" stroke="rgb(0, 0, 0)" stroke-linecap="butt" stroke-linejoin="round" stroke-opacity="1.0" stroke-width="3.0" />
            <path d=" M 959.963, 1042.350 964.235, 1045.236 " fill="none" stroke="rgb(0, 0, 0)" stroke-linecap="butt" stroke-linejoin="round" stroke-opacity="1.0" stroke-width="3.0" />
            <path d=" M 882.633, 1050.700 888.728, 1047.536 " fill="none" stroke="rgb(0, 0, 0)" stroke-linecap="butt" stroke-linejoin="round" stroke-opacity="1.0" stroke-width="3.0" />
            <path d=" M 1023.231, 1146.395 1021.460, 1141.319 " fill="none" stroke="rgb(0, 0, 0)" stroke-linecap="butt" stroke-linejoin="round" stroke-opacity="1.0" stroke-width="3.0" />
            <path d=" M 864.833, 1069.693 866.628, 1064.580 " fill="none" stroke="rgb(0, 0, 0)" stroke-linecap="butt" stroke-linejoin="round" stroke-opacity="1.0" stroke-width="3.0" />
            <path d=" M 984.503, 1116.907 979.054, 1117.274 973.828, 1118.342 " fill="none" stroke="rgb(0, 0, 0)" stroke-linecap="butt" stroke-linejoin="round" stroke-opacity="1.0" stroke-width="3.0" />
            <path d=" M 945.775, 1146.395 944.707, 1151.621 " fill="none" stroke="rgb(0, 0, 0)" stroke-linecap="butt" stroke-linejoin="round" stroke-opacity="1.0" stroke-width="3.0" />
            <path d=" M 1023.231, 1292.748 1021.460, 1287.671 " fill="none" stroke="rgb(0, 0, 0)" stroke-linecap="butt" stroke-linejoin="round" stroke-opacity="1.0" stroke-width="3.0" />
            <path d=" M 827.901, 1224.808 829.121, 1214.882 830.340, 1204.957 830.561, 1203.159 " fill="none" stroke="rgb(0, 0, 0)" stroke-linecap="butt" stroke-linejoin="round" stroke-opacity="1.0" stroke-width="3.0" />
            <path d=" M 944.707, 1297.974 944.340, 1303.422 944.707, 1308.871 945.775, 1314.097 947.497, 1319.053 949.825, 1323.690 952.710, 1327.962 956.106, 1331.819 " fill="none" stroke="rgb(0, 0, 0)" stroke-linecap="butt" stroke-linejoin="round" stroke-opacity="1.0" stroke-width="3.0" />
            <path d=" M 1024.299, 1308.871 1024.666, 1303.422 " fill="none" stroke="rgb(0, 0, 0)" stroke-linecap="butt" stroke-linejoin="round" stroke-opacity="1.0" stroke-width="3.0" />
            <path d=" M 959.963, 1335.215 964.235, 1338.100 " fill="none" stroke="rgb(0, 0, 0)" stroke-linecap="butt" stroke-linejoin="round" stroke-opacity="1.0" stroke-width="3.0" />
            <path d=" M 979.054, 1343.219 984.503, 1343.585 " fill="none" stroke="rgb(0, 0, 0)" stroke-linecap="butt" stroke-linejoin="round" stroke-opacity="1.0" stroke-width="3.0" />
            <path d=" M 944.707, 1443.936 944.340, 1449.385 944.707, 1454.833 945.775, 1460.059 " fill="none" stroke="rgb(0, 0, 0)" stroke-linecap="butt" stroke-linejoin="round" stroke-opacity="1.0" stroke-width="3.0" />
            <path d=" M 949.825, 1469.653 952.710, 1473.924 " fill="none" stroke="rgb(0, 0, 0)" stroke-linecap="butt" stroke-linejoin="round" stroke-opacity="1.0" stroke-width="3.0" />
            <path d=" M 956.106, 1567.323 952.710, 1571.180 " fill="none" stroke="rgb(0, 0, 0)" stroke-linecap="butt" stroke-linejoin="round" stroke-opacity="1.0" stroke-width="3.0" />
            <path d=" M 944.707, 1590.271 944.340, 1595.720 " fill="none" stroke="rgb(0, 0, 0)" stroke-linecap="butt" stroke-linejoin="round" stroke-opacity="1.0" stroke-width="3.0" />
            <path d=" M 945.775, 1606.395 947.497, 1611.350 949.825, 1615.988 " fill="none" stroke="rgb(0, 0, 0)" stroke-linecap="butt" stroke-linejoin="round" stroke-opacity="1.0" stroke-width="3.0" />
            <path d=" M 952.710, 1620.259 956.106, 1624.117 959.963, 1627.512 " fill="none" stroke="rgb(0, 0, 0)" stroke-linecap="butt" stroke-linejoin="round" stroke-opacity="1.0" stroke-width="3.0" />
            <path d=" M 1009.043, 1627.512 1012.900, 1624.117 " fill="none" stroke="rgb(0, 0, 0)" stroke-linecap="butt" stroke-linejoin="round" stroke-opacity="1.0" stroke-width="3.0" />
            <path d=" M 968.872, 1632.726 973.828, 1634.448 " fill="none" stroke="rgb(0, 0, 0)" stroke-linecap="butt" stroke-linejoin="round" stroke-opacity="1.0" stroke-width="3.0" />
            <path d=" M 989.951, 1635.516 995.178, 1634.448 " fill="none" stroke="rgb(0, 0, 0)" stroke-linecap="butt" stroke-linejoin="round" stroke-opacity="1.0" stroke-width="3.0" />
            <path d=" M 893.948, 1762.533 892.838, 1765.009 " fill="none" stroke="rgb(0, 0, 0)" stroke-linecap="butt" stroke-linejoin="round" stroke-opacity="1.0" stroke-width="3.0" />
            <path d=" M 892.838, 1765.009 892.111, 1767.646 891.816, 1770.426 891.884, 1773.529 " fill="none" stroke="rgb(0, 0, 0)" stroke-linecap="butt" stroke-linejoin="round" stroke-opacity="1.0" stroke-width="3.0" />
            <path d=" M 1029.205, 1771.964 1029.009, 1769.055 " fill="none" stroke="rgb(0, 0, 0)" stroke-linecap="butt" stroke-linejoin="round" stroke-opacity="1.0" stroke-width="3.0" />
            <path d=" M 901.152, 1790.253 903.895, 1791.591 907.033, 1792.581 " fill="none" stroke="rgb(0, 0, 0)" stroke-linecap="butt" stroke-linejoin="round" stroke-opacity="1.0" stroke-width="3.0" />
            <path d=" M 834.533, 1185.687 832.316, 1195.438 830.561, 1203.159 " fill="none" stroke="rgb(0, 0, 0)" stroke-linecap="butt" stroke-linejoin="round" stroke-opacity="1.0" stroke-width="3.0" />
            <path d=" M 860.974, 668.947 860.926, 678.947 860.918, 680.763 " fill="none" stroke="rgb(0, 0, 0)" stroke-linecap="butt" stroke-linejoin="round" stroke-opacity="1.0" stroke-width="3.0" />
            <path d=" M 864.306, 529.845 864.226, 537.895 " fill="none" stroke="rgb(0, 0, 0)" stroke-linecap="butt" stroke-linejoin="round" stroke-opacity="1.0" stroke-width="3.0" />
            <path d=" M 866.202, 302.769 865.825, 308.473 " fill="none" stroke="rgb(0, 0, 0)" stroke-linecap="butt" stroke-linejoin="round" stroke-opacity="1.0" stroke-width="3.0" />
            <path d=" M 879.193, 506.190 882.125, 507.069 " fill="none" stroke="rgb(0, 0, 0)" stroke-linecap="butt" stroke-linejoin="round" stroke-opacity="1.0" stroke-width="3.0" />
            <path d=" M 887.325, 735.722 890.229, 733.324 " fill="none" stroke="rgb(0, 0, 0)" stroke-linecap="butt" stroke-linejoin="round" stroke-opacity="1.0" stroke-width="3.0" />
            <path d=" M 890.482, 508.152 887.791, 508.039 " fill="none" stroke="rgb(0, 0, 0)" stroke-linecap="butt" stroke-linejoin="round" stroke-opacity="1.0" stroke-width="3.0" />
            <path d=" M 891.884, 150.125 891.816, 147.022 " fill="none" stroke="rgb(0, 0, 0)" stroke-linecap="butt" stroke-linejoin="round" stroke-opacity="1.0" stroke-width="3.0" />
            <path d=" M 891.884, 1773.529 892.239, 1776.510 " fill="none" stroke="rgb(0, 0, 0)" stroke-linecap="butt" stroke-linejoin="round" stroke-opacity="1.0" stroke-width="3.0" />
            <path d=" M 891.884, 150.125 892.239, 153.106 " fill="none" stroke="rgb(0, 0, 0)" stroke-linecap="butt" stroke-linejoin="round" stroke-opacity="1.0" stroke-width="3.0" />
            <path d=" M 895.615, 1043.960 888.728, 1047.536 " fill="none" stroke="rgb(0, 0, 0)" stroke-linecap="butt" stroke-linejoin="round" stroke-opacity="1.0" stroke-width="3.0" />
            <path d=" M 895.160, 1784.437 896.798, 1786.648 " fill="none" stroke="rgb(0, 0, 0)" stroke-linecap="butt" stroke-linejoin="round" stroke-opacity="1.0" stroke-width="3.0" />
            <path d=" M 906.705, 422.177 906.512, 417.391 " fill="none" stroke="rgb(0, 0, 0)" stroke-linecap="butt" stroke-linejoin="round" stroke-opacity="1.0" stroke-width="3.0" />
            <path d=" M 906.705, 422.177 906.521, 427.997 " fill="none" stroke="rgb(0, 0, 0)" stroke-linecap="butt" stroke-linejoin="round" stroke-opacity="1.0" stroke-width="3.0" />
            <path d=" M 909.177, 865.236 905.522, 872.365 " fill="none" stroke="rgb(0, 0, 0)" stroke-linecap="butt" stroke-linejoin="round" stroke-opacity="1.0" stroke-width="3.0" />
            <path d=" M 914.551, 1793.407 910.581, 1793.196 " fill="none" stroke="rgb(0, 0, 0)" stroke-linecap="butt" stroke-linejoin="round" stroke-opacity="1.0" stroke-width="3.0" />
            <path d=" M 944.340, 1595.720 944.707, 1601.168 " fill="none" stroke="rgb(0, 0, 0)" stroke-linecap="butt" stroke-linejoin="round" stroke-opacity="1.0" stroke-width="3.0" />
            <path d=" M 944.707, 1601.168 944.340, 1595.720 " fill="none" stroke="rgb(0, 0, 0)" stroke-linecap="butt" stroke-linejoin="round" stroke-opacity="1.0" stroke-width="3.0" />
            <path d=" M 944.707, 1601.168 945.775, 1606.395 " fill="none" stroke="rgb(0, 0, 0)" stroke-linecap="butt" stroke-linejoin="round" stroke-opacity="1.0" stroke-width="3.0" />
            <path d=" M 945.775, 1606.395 944.707, 1601.168 " fill="none" stroke="rgb(0, 0, 0)" stroke-linecap="butt" stroke-linejoin="round" stroke-opacity="1.0" stroke-width="3.0" />
            <path d=" M 944.707, 723.470 945.775, 728.697 " fill="none" stroke="rgb(0, 0, 0)" stroke-linecap="butt" stroke-linejoin="round" stroke-opacity="1.0" stroke-width="3.0" />
            <path d=" M 945.775, 728.697 944.707, 723.470 " fill="none" stroke="rgb(0, 0, 0)" stroke-linecap="butt" stroke-linejoin="round" stroke-opacity="1.0" stroke-width="3.0" />
            <path d=" M 947.497, 1172.700 945.775, 1167.745 " fill="none" stroke="rgb(0, 0, 0)" stroke-linecap="butt" stroke-linejoin="round" stroke-opacity="1.0" stroke-width="3.0" />
            <path d=" M 956.106, 892.249 959.963, 895.644 " fill="none" stroke="rgb(0, 0, 0)" stroke-linecap="butt" stroke-linejoin="round" stroke-opacity="1.0" stroke-width="3.0" />
            <path d=" M 959.963, 895.644 956.106, 892.249 " fill="none" stroke="rgb(0, 0, 0)" stroke-linecap="butt" stroke-linejoin="round" stroke-opacity="1.0" stroke-width="3.0" />
            <path d=" M 959.963, 1481.177 964.235, 1484.063 " fill="none" stroke="rgb(0, 0, 0)" stroke-linecap="butt" stroke-linejoin="round" stroke-opacity="1.0" stroke-width="3.0" />
            <path d=" M 964.235, 898.530 959.963, 895.644 " fill="none" stroke="rgb(0, 0, 0)" stroke-linecap="butt" stroke-linejoin="round" stroke-opacity="1.0" stroke-width="3.0" />
            <path d=" M 968.872, 608.434 964.235, 606.106 " fill="none" stroke="rgb(0, 0, 0)" stroke-linecap="butt" stroke-linejoin="round" stroke-opacity="1.0" stroke-width="3.0" />
            <path d=" M 968.872, 608.434 973.828, 610.156 " fill="none" stroke="rgb(0, 0, 0)" stroke-linecap="butt" stroke-linejoin="round" stroke-opacity="1.0" stroke-width="3.0" />
            <path d=" M 973.828, 1488.112 979.054, 1489.181 " fill="none" stroke="rgb(0, 0, 0)" stroke-linecap="butt" stroke-linejoin="round" stroke-opacity="1.0" stroke-width="3.0" />
            <path d=" M 979.054, 1489.181 973.828, 1488.112 " fill="none" stroke="rgb(0, 0, 0)" stroke-linecap="butt" stroke-linejoin="round" stroke-opacity="1.0" stroke-width="3.0" />
            <path d=" M 979.054, 1196.866 973.828, 1195.798 " fill="none" stroke="rgb(0, 0, 0)" stroke-linecap="butt" stroke-linejoin="round" stroke-opacity="1.0" stroke-width="3.0" />
            <path d=" M 984.503, 1489.548 979.054, 1489.181 " fill="none" stroke="rgb(0, 0, 0)" stroke-linecap="butt" stroke-linejoin="round" stroke-opacity="1.0" stroke-width="3.0" />
            <path d=" M 979.054, 757.818 984.503, 758.185 " fill="none" stroke="rgb(0, 0, 0)" stroke-linecap="butt" stroke-linejoin="round" stroke-opacity="1.0" stroke-width="3.0" />
            <path d=" M 984.503, 758.185 979.054, 757.818 " fill="none" stroke="rgb(0, 0, 0)" stroke-linecap="butt" stroke-linejoin="round" stroke-opacity="1.0" stroke-width="3.0" />
            <path d=" M 989.951, 1489.181 984.503, 1489.548 " fill="none" stroke="rgb(0, 0, 0)" stroke-linecap="butt" stroke-linejoin="round" stroke-opacity="1.0" stroke-width="3.0" />
            <path d=" M 989.951, 1489.181 995.178, 1488.112 " fill="none" stroke="rgb(0, 0, 0)" stroke-linecap="butt" stroke-linejoin="round" stroke-opacity="1.0" stroke-width="3.0" />
            <path d=" M 995.178, 1049.286 989.951, 1050.354 " fill="none" stroke="rgb(0, 0, 0)" stroke-linecap="butt" stroke-linejoin="round" stroke-opacity="1.0" stroke-width="3.0" />
            <path d=" M 1000.133, 1632.726 995.178, 1634.448 " fill="none" stroke="rgb(0, 0, 0)" stroke-linecap="butt" stroke-linejoin="round" stroke-opacity="1.0" stroke-width="3.0" />
            <path d=" M 1000.133, 1047.564 995.178, 1049.286 " fill="none" stroke="rgb(0, 0, 0)" stroke-linecap="butt" stroke-linejoin="round" stroke-opacity="1.0" stroke-width="3.0" />
            <path d=" M 1004.771, 1630.398 1000.133, 1632.726 " fill="none" stroke="rgb(0, 0, 0)" stroke-linecap="butt" stroke-linejoin="round" stroke-opacity="1.0" stroke-width="3.0" />
            <path d=" M 914.551, 1793.407 924.551, 1793.407 934.551, 1793.407 944.551, 1793.407 954.551, 1793.407 964.551, 1793.407 974.551, 1793.407 984.551, 1793.407 994.551, 1793.407 1004.551, 1793.407 1007.762, 1793.407 " fill="none" stroke="rgb(0, 0, 0)" stroke-linecap="butt" stroke-linejoin="round" stroke-opacity="1.0" stroke-width="3.0" />
            <path d=" M 1009.043, 1481.177 1012.900, 1477.782 " fill="none" stroke="rgb(0, 0, 0)" stroke-linecap="butt" stroke-linejoin="round" stroke-opacity="1.0" stroke-width="3.0" />
            <path d=" M 1010.891, 357.281 1015.574, 355.654 " fill="none" stroke="rgb(0, 0, 0)" stroke-linecap="butt" stroke-linejoin="round" stroke-opacity="1.0" stroke-width="3.0" />
            <path d=" M 1015.574, 355.654 1010.891, 357.281 " fill="none" stroke="rgb(0, 0, 0)" stroke-linecap="butt" stroke-linejoin="round" stroke-opacity="1.0" stroke-width="3.0" />
            <path d=" M 1016.107, 168.318 1013.461, 169.237 " fill="none" stroke="rgb(0, 0, 0)" stroke-linecap="butt" stroke-linejoin="round" stroke-opacity="1.0" stroke-width="3.0" />
            <path d=" M 1016.295, 1327.962 1012.900, 1331.819 " fill="none" stroke="rgb(0, 0, 0)" stroke-linecap="butt" stroke-linejoin="round" stroke-opacity="1.0" stroke-width="3.0" />
            <path d=" M 1023.231, 1585.045 1021.460, 1579.969 " fill="none" stroke="rgb(0, 0, 0)" stroke-linecap="butt" stroke-linejoin="round" stroke-opacity="1.0" stroke-width="3.0" />
            <path d=" M 1023.231, 999.883 1021.460, 994.807 " fill="none" stroke="rgb(0, 0, 0)" stroke-linecap="butt" stroke-linejoin="round" stroke-opacity="1.0" stroke-width="3.0" />
            <path d=" M 1024.666, 1010.558 1024.299, 1016.006 " fill="none" stroke="rgb(0, 0, 0)" stroke-linecap="butt" stroke-linejoin="round" stroke-opacity="1.0" stroke-width="3.0" />
            <path d=" M 826.931, 1814.969 836.931, 1814.969 846.931, 1814.969 856.931, 1814.969 866.931, 1814.969 876.931, 1814.969 886.931, 1814.969 896.931, 1814.969 906.931, 1814.969 916.931, 1814.969 926.931, 1814.969 936.931, 1814.969 946.931, 1814.969 956.931, 1814.969 966.931, 1814.969 976.931, 1814.969 986.931, 1814.969 996.931, 1814.969 1006.931, 1814.969 1016.931, 1814.969 1026.931, 1814.969 1036.931, 1814.969 1046.931, 1814.969 1056.931, 1814.969 1066.931, 1814.969 1076.931, 1814.969 1086.931, 1814.969 1093.069, 1814.969 " fill="none" stroke="rgb(0, 0, 0)" stroke-linecap="butt" stroke-linejoin="round" stroke-opacity="1.0" stroke-width="3.0" />
            <path d=" M 1093.069, 105.031 1083.069, 105.031 1073.069, 105.031 1063.069, 105.031 1053.069, 105.031 1043.069, 105.031 1033.069, 105.031 1023.069, 105.031 1013.069, 105.031 1003.069, 105.031 993.069, 105.031 983.069, 105.031 973.069, 105.031 963.069, 105.031 953.069, 105.031 943.069, 105.031 933.069, 105.031 923.069, 105.031 913.069, 105.031 903.069, 105.031 893.069, 105.031 883.069, 105.031 873.069, 105.031 863.069, 105.031 853.069, 105.031 843.069, 105.031 833.069, 105.031 826.931, 105.031 " fill="none" stroke="rgb(0, 0, 0)" stroke-linecap="butt" stroke-linejoin="round" stroke-opacity="1.0" stroke-width="3.0" />
        </g>
    </g>
</svg>
