<?xml version="1.0" encoding="UTF-8" standalone="no"?>
             <svg xmlns="http://www.w3.org/2000/svg"
                width="10mm"
                height="10mm">
          <path style="fill:#000" d="M -10.000000mm,62.454805mm -10.000000mm,64.250000mm -3.333333mm,64.250000mm C 3.333333mm,64.250000mm 10.000000mm,64.250000mm 10.000000mm,21.416672mm C 10.000000mm,-21.416664mm 10.000000mm,-64.249992mm 3.333333mm,-64.249992mm C -3.333333mm,-64.250000mm -10.000000mm,-64.250000mm -9.975739mm,-50.130524mm C -9.951479mm,-36.011048mm -9.927218mm,-21.891568mm -9.912160mm,-13.128252mm C -6.273271mm,-14.337202mm -6.977062mm,-10.876954mm -7.745641mm,-7.098174mm C -6.678026mm,-7.397731mm -4.263117mm,-5.989751mm -1.848208mm,-4.581772mm C -5.187073mm,0.849238mm -3.537299mm,2.213805mm -2.138092mm,3.371120mm C -6.208114mm,4.858544mm -4.542483mm,6.126716mm -2.361269mm,7.787440mm C -5.064136mm,11.675457mm -4.106323mm,13.197008mm -3.148511mm,14.718559mm C -6.678239mm,16.003679mm -5.461452mm,16.854281mm -4.255499mm,17.697308mm C -7.240045mm,16.919449mm -7.414388mm,20.065406mm -7.621461mm,23.801969mm C -6.799803mm,26.819101mm -7.006467mm,28.804084mm -7.339401mm,32.001868mm C -7.317963mm,34.635812mm -6.295766mm,34.190316mm -5.399213mm,33.799578mm C -4.533765mm,33.930376mm -4.154663mm,34.339085mm -3.589140mm,34.948774mm C -4.425250mm,36.598340mm -4.070258mm,39.446171mm -3.777368mm,41.795809mm C -4.606017mm,41.401673mm -3.911787mm,43.546040mm -3.526717mm,44.735461mm C -4.067037mm,46.312306mm -5.619365mm,45.827143mm -6.799022mm,45.458455mm C -7.340929mm,45.994084mm -7.112489mm,48.539259mm -6.962522mm,50.210115mm C -6.884839mm,52.133903mm -8.026537mm,53.111274mm -9.782534mm,54.614525mm C -10.000000mm,56.443077mm -10.000000mm,58.864418mm -10.000000mm,60.659613mm Z M 1.964561mm,14.274111mm 1.964561mm,15.940536mm 1.964560mm,17.606962mm C 3.316334mm,18.958742mm 4.982759mm,18.958742mm 6.649185mm,18.958742mm C 8.000959mm,17.606962mm 8.000958mm,15.940536mm 8.000957mm,14.274111mm C 6.649184mm,12.922334mm 4.982759mm,12.922334mm 3.316334mm,12.922334mm Z M -1.146334mm,-59.412505mm -3.514129mm,-59.415337mm -4.221220mm,-59.416182mm C -5.104759mm,-60.047194mm -5.123974mm,-60.902659mm -5.145273mm,-61.850838mm C -4.673691mm,-62.629633mm -3.415477mm,-62.629633mm -1.080565mm,-62.629633mm C 1.254346mm,-62.629633mm 3.589258mm,-62.629633mm 4.478947mm,-62.629633mm C 5.200648mm,-61.907928mm 5.200648mm,-61.018240mm 5.200649mm,-60.128547mm C 4.478947mm,-59.405778mm 3.589258mm,-59.406843mm 1.221462mm,-59.409674mm Z M 1.964561mm,25.076792mm 1.964561mm,26.743216mm 1.964560mm,28.409641mm C 3.316334mm,29.761422mm 4.982759mm,29.761422mm 6.649185mm,29.761422mm C 8.000959mm,28.409641mm 8.000958mm,26.743216mm 8.000957mm,25.076792mm C 6.649184mm,23.725014mm 4.982759mm,23.725014mm 3.316334mm,23.725014mm Z M 1.964561mm,3.464760mm 1.964561mm,5.131185mm 1.964560mm,6.797611mm C 3.316334mm,8.149391mm 4.982759mm,8.149391mm 6.649185mm,8.149391mm C 8.000959mm,6.797611mm 8.000958mm,5.131185mm 8.000957mm,3.464760mm C 6.649184mm,2.112983mm 4.982759mm,2.112983mm 3.316334mm,2.112983mm Z M 1.964561mm,-7.303613mm 1.964561mm,-5.637188mm 1.964560mm,-3.970763mm C 3.316334mm,-2.618982mm 4.982759mm,-2.618982mm 6.649185mm,-2.618982mm C 8.000959mm,-3.970763mm 8.000958mm,-5.637188mm 8.000957mm,-7.303613mm C 6.649184mm,-8.655391mm 4.982759mm,-8.655391mm 3.316334mm,-8.655391mm Z M 1.964561mm,-18.121500mm 1.964561mm,-16.455075mm 1.964560mm,-14.788649mm C 3.316334mm,-13.436869mm 4.982759mm,-13.436869mm 6.649185mm,-13.436869mm C 8.000959mm,-14.788649mm 8.000958mm,-16.455075mm 8.000957mm,-18.121500mm C 6.649184mm,-19.473277mm 4.982759mm,-19.473277mm 3.316334mm,-19.473277mm Z M 1.964561mm,-28.884655mm 1.964561mm,-27.218230mm 1.964560mm,-25.551803mm C 3.316334mm,-24.200024mm 4.982759mm,-24.200024mm 6.649185mm,-24.200024mm C 8.000959mm,-25.551803mm 8.000958mm,-27.218230mm 8.000957mm,-28.884655mm C 6.649184mm,-30.236432mm 4.982759mm,-30.236432mm 3.316334mm,-30.236432mm Z M 1.964561mm,-39.725341mm 1.964561mm,-38.058914mm 1.964561mm,-36.392488mm C 3.316334mm,-35.040710mm 4.982759mm,-35.040710mm 6.649185mm,-35.040710mm C 8.000958mm,-36.392488mm 8.000958mm,-38.058914mm 8.000958mm,-39.725341mm C 6.649185mm,-41.077118mm 4.982759mm,-41.077118mm 3.316334mm,-41.077118mm Z M 1.964561mm,-50.508574mm 1.964561mm,-48.842147mm 1.964561mm,-47.175720mm C 3.316334mm,-45.823943mm 4.982759mm,-45.823943mm 6.649185mm,-45.823943mm C 8.000958mm,-47.175720mm 8.000958mm,-48.842147mm 8.000958mm,-50.508574mm C 6.649185mm,-51.860351mm 4.982759mm,-51.860351mm 3.316334mm,-51.860351mm Z M -1.146334mm,62.584534mm -3.514129mm,62.581703mm -4.221220mm,62.580861mm C -5.104759mm,61.949845mm -5.123974mm,61.094381mm -5.145273mm,60.146201mm C -4.673691mm,59.367407mm -3.415477mm,59.367407mm -1.080565mm,59.367407mm C 1.254346mm,59.367407mm 3.589258mm,59.367407mm 4.478947mm,59.367407mm C 5.200648mm,60.089111mm 5.200648mm,60.978800mm 5.200649mm,61.868493mm C 4.478947mm,62.591262mm 3.589258mm,62.590197mm 1.221462mm,62.587366mm Z M -0.929640mm,45.655206mm -0.929640mm,47.449615mm -0.929640mm,49.244024mm C 0.525954mm,50.699614mm 2.320361mm,50.699614mm 4.114768mm,50.699614mm C 5.570362mm,49.244024mm 5.570362mm,47.449615mm 5.570362mm,45.655206mm C 4.114768mm,44.199616mm 2.320361mm,44.199616mm 0.525954mm,44.199616mm Z "/></svg>